<?xml version="1.0" encoding="UTF-8"?>
<!--Generator: Apple Native CoreSVG 175.5-->
<!DOCTYPE svg
PUBLIC "-//W3C//DTD SVG 1.1//EN"
       "http://www.w3.org/Graphics/SVG/1.1/DTD/svg11.dtd">
<svg version="1.1" xmlns="http://www.w3.org/2000/svg" xmlns:xlink="http://www.w3.org/1999/xlink" width="17.972" height="17.999">
 <g>
  <rect height="17.999" opacity="0" width="17.972" x="0" y="0"/>
  <path d="M3.06359 17.999L14.9084 17.999C16.9548 17.999 17.972 16.9776 17.972 14.9665L17.972 3.04921C17.972 1.03808 16.9548 0.0166791 14.9084 0.0166791L3.06359 0.0166791C1.02753 0.0166791 0 1.03386 0 3.04921L0 14.9665C0 16.9819 1.02753 17.999 3.06359 17.999Z" fill="#32d74b"/>
  <path d="M7.89481 13.7633C7.55707 13.7633 7.28773 13.6328 7.02878 13.2868L4.58231 10.2779C4.43932 10.0914 4.3523 9.87168 4.3523 9.652C4.3523 9.20442 4.69215 8.84595 5.13553 8.84595C5.41118 8.84595 5.63084 8.9351 5.86701 9.25827L7.8513 11.8111L12.0226 5.12597C12.2091 4.82349 12.4619 4.67014 12.723 4.67014C13.1478 4.67014 13.5498 4.95826 13.5498 5.42233C13.5498 5.63777 13.4213 5.8678 13.3033 6.06045L8.7112 13.2868C8.51223 13.61 8.23257 13.7633 7.89481 13.7633Z" fill="#ffffff" fill-opacity="0.85"/>
 </g>
</svg>
